# xmcd
#
# Track frame offsets:
#	150
#	21467
#	39813
#	60531
#	84006
#	95820
#	114511
#	136007
#	150094
#	172069
#	188820
#
# Disc length: 2671 seconds
#
# Revision: 0
# Processed by: cddbd v1.5.2PL0 Copyright (c) Steve Scherf et al.
# Submitted via: EZCDAudioConverter 2.8.0.1
#
DISCID=7c0a6d0b
DTITLE=Jóvilágvan
DYEAR=2017
DGENRE=
TTITLE0=Renoir
TTITLE1=Idő
TTITLE2=Felhő
TTITLE3=Anna
TTITLE4=Leopárd
TTITLE5=Apollón Pánhoz
TTITLE6=Múltra folt
TTITLE7=Körhinta
TTITLE8=Abrakadabra
TTITLE9=Ölni ölni
TTITLE10=Melyiké vagy?
EXTD=
EXTT0=
EXTT1=
EXTT2=
EXTT3=
EXTT4=
EXTT5=
EXTT6=
EXTT7=
EXTT8=
EXTT9=
EXTT10=
PLAYORDER=
